<?xml version="1.0" encoding="UTF-8"?>
<!DOCTYPE svg PUBLIC "-//W3C//DTD SVG 1.1//EN" "http://www.w3.org/Graphics/SVG/1.1/DTD/svg11.dtd">
<svg version="1.1" xmlns="http://www.w3.org/2000/svg" xmlns:xlink="http://www.w3.org/1999/xlink" x="0" y="0" width="269.291" height="255.118" viewBox="0, 0, 269.291, 255.118">
  <defs>
    <clipPath id="Clip_1">
      <path d="M238.729,1.254 L238.729,255.118 L30,255.118 L30,1.254 L238.729,1.254 z"/>
    </clipPath>
  </defs>
  <g id="Layer_1">
    <g clip-path="url(#Clip_1)">
      <path d="M206.027,264.972 C185.354,210.925 174.145,189.924 165.432,184.253 C165.402,184.234 165.379,184.22 165.352,184.201 C164.92,183.767 164.021,183.226 162.748,182.64 C162.57,182.55 162.477,182.508 162.477,182.508 L162.477,182.518 C160.57,181.668 157.914,180.738 154.802,179.926 C180.003,175.762 196.818,161.328 205.822,142.894 C218.548,141.388 224.807,135.536 224.87,124.399 C224.929,113.958 219.465,109.585 213.715,107.865 C213.74,102.828 213.332,97.772 212.504,92.784 C213.068,94.233 213.559,95.724 213.958,97.259 C213.958,97.259 233.157,51.077 189.281,28.601 C189.281,28.601 174.404,0.072 112.72,14.235 C104.765,15.087 92.695,15.352 83.509,11.003 C83.509,11.003 81.726,17.298 89.929,22.608 C48.916,45.875 65.287,97.339 65.287,97.339 C65.287,97.339 65.371,96.672 65.58,95.51 C65.058,99.332 64.78,103.185 64.757,107.03 C58.987,108.686 53.476,112.998 53.417,123.439 C53.354,134.575 59.549,140.497 72.256,142.146 C81.053,160.68 97.706,175.302 122.859,179.747 C117.337,181.124 113.223,182.884 112.207,183.955 L112.218,184.229 C112.205,184.238 112.194,184.244 112.181,184.253 C103.468,189.923 92.26,210.923 71.589,264.961 C68.959,265.423 64.814,266.864 61,271.257 C54.118,279.181 53.866,281.653 54.048,285.535 C54.184,288.42 57.62,287.229 59.027,284.567 C60.304,282.152 62.127,283.28 62.127,283.28 C57.806,295.68 63.63,297.746 65.508,293.989 C67.021,290.964 68.89,285.159 68.89,285.159 C68.89,285.159 71.145,293.989 72.835,295.68 C74.526,297.371 78.096,295.492 76.968,291.923 C75.841,288.353 77.237,281.105 78.471,280.65 C82.041,279.336 79.846,284.066 80.826,286.139 C82.229,289.104 84.671,289.104 86.737,284.596 C88.468,280.82 85.538,273.813 84.537,271.627 L85.253,271.989 L107.315,234.826 L97.504,294.698 L100.25,294.698 C99.653,299.786 99.302,305.155 99.13,310.546 L99.039,310.651 C99.069,310.633 99.098,310.613 99.128,310.595 C98.346,335.188 101.254,360.146 101.254,360.146 L108.259,360.185 L108.974,369.963 L108.849,369.964 L112.435,420.098 C110.375,420.94 108.489,422.167 107.107,423.947 C105.745,425.703 105.053,427.096 104.741,428.19 L104.738,428.191 C102.369,432.434 104.145,434.212 104.145,434.212 L126.775,434.143 L126.789,431.752 L126.862,418.595 C126.862,418.595 126.831,418.591 126.785,418.585 L129.692,369.855 L129.69,369.855 L130.292,360.308 L135.986,360.341 L137.862,326.045 L138.074,314.836 L138.161,326.047 L139.652,360.361 L147.326,360.404 L147.922,369.855 L147.92,369.855 L150.896,419.754 L150.83,431.782 L150.816,434.174 L173.443,434.495 C173.443,434.495 175.241,432.738 172.916,428.468 C172.615,427.369 171.939,425.97 170.596,424.198 C169.202,422.36 167.275,421.094 165.168,420.226 L168.764,369.964 L168.639,369.963 L169.328,360.527 L174.386,360.556 C174.386,360.556 177.572,335.632 177.066,311.031 C177.096,311.051 177.125,311.07 177.154,311.089 L177.064,310.982 C176.949,305.44 176.648,299.917 176.079,294.698 L180.107,294.698 L170.297,234.826 L192.359,271.989 L193.008,271.661 C191.991,273.887 189.102,280.841 190.823,284.596 C192.89,289.104 195.332,289.104 196.734,286.139 C197.715,284.066 195.52,279.336 199.09,280.65 C200.323,281.105 201.719,288.353 200.592,291.923 C199.465,295.492 203.035,297.371 204.726,295.68 C206.416,293.989 208.67,285.159 208.67,285.159 C208.67,285.159 210.539,290.964 212.053,293.989 C213.931,297.746 219.755,295.68 215.434,283.28 C215.434,283.28 217.257,282.152 218.533,284.567 C219.941,287.229 223.377,288.42 223.512,285.535 C223.695,281.653 223.443,279.181 216.561,271.257 C212.772,266.894 208.66,265.444 206.027,264.972" fill="#666666"/>
      <path d="M206.027,264.972 C185.354,210.925 174.145,189.924 165.432,184.253 C165.402,184.234 165.379,184.22 165.352,184.201 C164.92,183.767 164.021,183.226 162.748,182.64 C162.57,182.55 162.477,182.508 162.477,182.508 L162.477,182.518 C160.57,181.668 157.914,180.738 154.802,179.926 C180.003,175.762 196.818,161.328 205.822,142.894 C218.548,141.388 224.807,135.536 224.87,124.399 C224.929,113.958 219.465,109.585 213.715,107.865 C213.74,102.828 213.332,97.772 212.504,92.784 C213.068,94.233 213.559,95.724 213.958,97.259 C213.958,97.259 233.157,51.077 189.281,28.601 C189.281,28.601 174.404,0.072 112.72,14.235 C104.765,15.087 92.695,15.352 83.509,11.003 C83.509,11.003 81.726,17.298 89.929,22.608 C48.916,45.875 65.287,97.339 65.287,97.339 C65.287,97.339 65.371,96.672 65.58,95.51 C65.058,99.332 64.78,103.185 64.757,107.03 C58.987,108.686 53.476,112.998 53.417,123.439 C53.354,134.575 59.549,140.497 72.256,142.146 C81.053,160.68 97.706,175.302 122.859,179.747 C117.337,181.124 113.223,182.884 112.207,183.955 L112.218,184.229 C112.205,184.238 112.194,184.244 112.181,184.253 C103.468,189.923 92.26,210.923 71.589,264.961 C68.959,265.423 64.814,266.864 61,271.257 C54.118,279.181 53.866,281.653 54.048,285.535 C54.184,288.42 57.62,287.229 59.027,284.567 C60.304,282.152 62.127,283.28 62.127,283.28 C57.806,295.68 63.63,297.746 65.508,293.989 C67.021,290.964 68.89,285.159 68.89,285.159 C68.89,285.159 71.145,293.989 72.835,295.68 C74.526,297.371 78.096,295.492 76.968,291.923 C75.841,288.353 77.237,281.105 78.471,280.65 C82.041,279.336 79.846,284.066 80.826,286.139 C82.229,289.104 84.671,289.104 86.737,284.596 C88.468,280.82 85.538,273.813 84.537,271.627 L85.253,271.989 L107.315,234.826 L97.504,294.698 L100.25,294.698 C99.653,299.786 99.302,305.155 99.13,310.546 L99.039,310.651 C99.069,310.633 99.098,310.613 99.128,310.595 C98.346,335.188 101.254,360.146 101.254,360.146 L108.259,360.185 L108.974,369.963 L108.849,369.964 L112.435,420.098 C110.375,420.94 108.489,422.167 107.107,423.947 C105.745,425.703 105.053,427.096 104.741,428.19 L104.738,428.191 C102.369,432.434 104.145,434.212 104.145,434.212 L126.775,434.143 L126.789,431.752 L126.862,418.595 C126.862,418.595 126.831,418.591 126.785,418.585 L129.692,369.855 L129.69,369.855 L130.292,360.308 L135.986,360.341 L137.862,326.045 L138.074,314.836 L138.161,326.047 L139.652,360.361 L147.326,360.404 L147.922,369.855 L147.92,369.855 L150.896,419.754 L150.83,431.782 L150.816,434.174 L173.443,434.495 C173.443,434.495 175.241,432.738 172.916,428.468 C172.615,427.369 171.939,425.97 170.596,424.198 C169.202,422.36 167.275,421.094 165.168,420.226 L168.764,369.964 L168.639,369.963 L169.328,360.527 L174.386,360.556 C174.386,360.556 177.572,335.632 177.066,311.031 C177.096,311.051 177.125,311.07 177.154,311.089 L177.064,310.982 C176.949,305.44 176.648,299.917 176.079,294.698 L180.107,294.698 L170.297,234.826 L192.359,271.989 L193.008,271.661 C191.991,273.887 189.102,280.841 190.823,284.596 C192.89,289.104 195.332,289.104 196.734,286.139 C197.715,284.066 195.52,279.336 199.09,280.65 C200.323,281.105 201.719,288.353 200.592,291.923 C199.465,295.492 203.035,297.371 204.726,295.68 C206.416,293.989 208.67,285.159 208.67,285.159 C208.67,285.159 210.539,290.964 212.053,293.989 C213.931,297.746 219.755,295.68 215.434,283.28 C215.434,283.28 217.257,282.152 218.533,284.567 C219.941,287.229 223.377,288.42 223.512,285.535 C223.695,281.653 223.443,279.181 216.561,271.257 C212.772,266.894 208.66,265.444 206.027,264.972 z" fill-opacity="0" stroke="#666666" stroke-width="8" stroke-linecap="round" stroke-linejoin="round"/>
      <path d="M138.843,177.728 C126.475,177.659 114.081,181.979 112.207,183.955 L113.269,211.211 L164.039,211.495 L165.405,184.253 C163.556,182.257 151.211,177.798 138.843,177.728" fill="#FFC46B"/>
      <path d="M138.843,177.728 C126.475,177.659 114.081,181.979 112.207,183.955 L113.269,211.211 L164.039,211.495 L165.405,184.253 C163.556,182.257 151.211,177.798 138.843,177.728 z" fill-opacity="0" stroke="#666666" stroke-width="4" stroke-linecap="round" stroke-linejoin="round"/>
      <path d="M162.477,182.508 C162.477,182.508 163.314,182.866 165.432,184.253 C174.15,189.927 185.367,210.948 206.064,265.065 L192.359,271.989 L159.996,217.473" fill="#FFC46B"/>
      <path d="M162.477,182.508 C162.477,182.508 163.314,182.866 165.432,184.253 C174.15,189.927 185.367,210.948 206.064,265.065 L192.359,271.989 L159.996,217.473" fill-opacity="0" stroke="#666666" stroke-width="4" stroke-linecap="round" stroke-linejoin="round"/>
      <path d="M115.135,182.508 C115.135,182.508 114.298,182.866 112.181,184.253 C103.462,189.927 92.246,210.948 71.548,265.065 L85.253,271.989 L117.616,217.473" fill="#FFC46B"/>
      <path d="M115.135,182.508 C115.135,182.508 114.298,182.866 112.181,184.253 C103.462,189.927 92.246,210.948 71.548,265.065 L85.253,271.989 L117.616,217.473" fill-opacity="0" stroke="#666666" stroke-width="4" stroke-linecap="round" stroke-linejoin="round"/>
      <path d="M138.702,202.686 L148.193,184.558 L129.364,184.453 z" fill="#DEF3FF"/>
      <path d="M138.702,202.686 L148.193,184.558 L129.364,184.453 L138.702,202.686 z" fill-opacity="0" stroke="#666666" stroke-width="4" stroke-linecap="round" stroke-linejoin="round"/>
      <path d="M145.722,176.715 L144.528,163.306 L138.943,159.63 L133.317,163.243 L131.974,176.638 L127.431,178.761 C127.431,178.761 127.597,188.718 138.78,188.78 C149.964,188.843 150.242,178.889 150.242,178.889 z" fill="#FFECD0"/>
      <path d="M145.722,176.715 L144.528,163.306 L138.943,159.63 L133.317,163.243 L131.974,176.638 L127.431,178.761 C127.431,178.761 127.597,188.718 138.78,188.78 C149.964,188.843 150.242,178.889 150.242,178.889 L145.722,176.715 z" fill-opacity="0" stroke="#666666" stroke-width="4" stroke-linecap="round" stroke-linejoin="round"/>
      <path d="M77.821,106.615 C77.821,106.615 53.54,101.463 53.417,123.439 C53.345,136.368 61.682,142.283 78.884,142.625" fill="#FFECD0"/>
      <path d="M77.821,106.615 C77.821,106.615 53.54,101.463 53.417,123.439 C53.345,136.368 61.682,142.283 78.884,142.625" fill-opacity="0" stroke="#666666" stroke-width="4" stroke-linecap="round" stroke-linejoin="round"/>
      <path d="M62.674,124.68 C62.674,124.68 65.869,123.226 68.905,123.263" fill="#FFECD0"/>
      <path d="M62.674,124.68 C62.674,124.68 65.869,123.226 68.905,123.263" fill-opacity="0" stroke="#666666" stroke-width="4" stroke-linecap="round" stroke-linejoin="round"/>
      <path d="M200.655,107.304 C200.655,107.304 224.993,102.423 224.87,124.399 C224.797,137.328 216.396,143.149 199.191,143.299" fill="#FFECD0"/>
      <path d="M200.655,107.304 C200.655,107.304 224.993,102.423 224.87,124.399 C224.797,137.328 216.396,143.149 199.191,143.299" fill-opacity="0" stroke="#666666" stroke-width="4" stroke-linecap="round" stroke-linejoin="round"/>
      <path d="M215.601,125.537 C215.601,125.537 212.421,124.047 209.386,124.049" fill="#FFECD0"/>
      <path d="M215.601,125.537 C215.601,125.537 212.421,124.047 209.386,124.049" fill-opacity="0" stroke="#666666" stroke-width="4" stroke-linecap="round" stroke-linejoin="round"/>
      <path d="M138.823,181.15 C34.521,180.566 45.47,27.459 139.681,27.986 C233.891,28.514 243.125,181.734 138.823,181.15" fill="#FFECD0"/>
      <path d="M138.823,181.15 C34.521,180.566 45.47,27.459 139.681,27.986 C233.891,28.514 243.125,181.734 138.823,181.15 z" fill-opacity="0" stroke="#666666" stroke-width="4" stroke-linecap="round" stroke-linejoin="round"/>
      <path d="M136.284,123.059 C136.284,123.059 135.181,127.896 139.421,127.651" fill-opacity="0" stroke="#666666" stroke-width="4" stroke-linecap="round" stroke-linejoin="round"/>
      <path d="M98.683,46.067 C98.683,46.067 112.063,67.427 144.525,74.229 L141.652,51.511 C141.652,51.511 151.504,68.808 181.977,73.709 L179.109,59.288 C179.109,59.288 207.654,73.037 213.958,97.259 C213.958,97.259 233.157,51.077 189.281,28.601 C189.281,28.601 173.946,-0.809 109.857,14.914 C44.178,31.026 65.287,97.339 65.287,97.339 C65.287,97.339 69.593,61.985 98.683,46.067" fill="#997B5C"/>
      <path d="M98.683,46.067 C98.683,46.067 112.063,67.427 144.525,74.229 L141.652,51.511 C141.652,51.511 151.504,68.808 181.977,73.709 L179.109,59.288 C179.109,59.288 207.654,73.037 213.958,97.259 C213.958,97.259 233.157,51.077 189.281,28.601 C189.281,28.601 173.946,-0.809 109.857,14.914 C44.178,31.026 65.287,97.339 65.287,97.339 C65.287,97.339 69.593,61.985 98.683,46.067 z" fill-opacity="0" stroke="#666666" stroke-width="4" stroke-linecap="round" stroke-linejoin="round"/>
      <path d="M121.099,12.932 C121.099,12.932 98.47,18.087 83.509,11.003 C83.509,11.003 81.081,19.528 94.801,25.104" fill="#997B5C"/>
      <path d="M121.099,12.932 C121.099,12.932 98.47,18.087 83.509,11.003 C83.509,11.003 81.081,19.528 94.801,25.104" fill-opacity="0" stroke="#666666" stroke-width="4" stroke-linecap="round" stroke-linejoin="round"/>
      <path d="M112.176,205.156 L97.504,294.698 L180.107,294.698 L165.436,205.156" fill="#FFC46B"/>
      <path d="M112.176,205.156 L97.504,294.698 L180.107,294.698 L165.436,205.156" fill-opacity="0" stroke="#666666" stroke-width="4" stroke-linecap="round" stroke-linejoin="round"/>
      <path d="M138.75,136.82 C125.681,136.82 114.625,148.005 115,165.995 C115.17,174.167 129.25,160.325 138.75,160.325 C148.25,160.325 162.33,174.167 162.5,165.995 C162.875,148.005 151.819,136.82 138.75,136.82" fill="#F09A96"/>
      <path d="M138.75,136.82 C125.681,136.82 114.625,148.005 115,165.995 C115.17,174.167 129.25,160.325 138.75,160.325 C148.25,160.325 162.33,174.167 162.5,165.995 C162.875,148.005 151.819,136.82 138.75,136.82 z" fill-opacity="0" stroke="#666666" stroke-width="4" stroke-linecap="round" stroke-linejoin="round"/>
      <path d="M99,104.82 C104.75,99.07 113.251,101.57 113.251,101.57 C113.251,101.57 106,103.82 101,109.82" fill-opacity="0" stroke="#666666" stroke-width="4" stroke-linecap="round" stroke-linejoin="round"/>
      <path d="M178.561,104.82 C172.811,99.07 164.31,101.57 164.31,101.57 C164.31,101.57 171.561,103.82 176.561,109.82" fill-opacity="0" stroke="#666666" stroke-width="4" stroke-linecap="round" stroke-linejoin="round"/>
      <path d="M101.25,88.199 C101.25,88.199 113,86.369 113.5,77.949" fill-opacity="0" stroke="#666666" stroke-width="4" stroke-linecap="round" stroke-linejoin="round"/>
      <path d="M176.311,88.199 C176.311,88.199 164.561,86.369 164.061,77.949" fill-opacity="0" stroke="#666666" stroke-width="4" stroke-linecap="round" stroke-linejoin="round"/>
      <path d="M99.71,116.195 C99.71,116.195 85.898,124.982 83.723,135.627 C81.824,144.916 87.637,150.752 93.021,144.017 C95.715,140.647 96.335,137.025 96.335,137.025" fill="#A6DBE6"/>
      <path d="M99.71,116.195 C99.71,116.195 85.898,124.982 83.723,135.627 C81.824,144.916 87.637,150.752 93.021,144.017 C95.715,140.647 96.335,137.025 96.335,137.025" fill-opacity="0" stroke="#666666" stroke-width="4" stroke-linecap="round" stroke-linejoin="round"/>
      <path d="M177.85,116.195 C177.85,116.195 191.662,124.982 193.838,135.627 C195.736,144.916 189.924,150.752 184.539,144.017 C181.846,140.647 181.225,137.025 181.225,137.025" fill="#A6DBE6"/>
      <path d="M177.85,116.195 C177.85,116.195 191.662,124.982 193.838,135.627 C195.736,144.916 189.924,150.752 184.539,144.017 C181.846,140.647 181.225,137.025 181.225,137.025" fill-opacity="0" stroke="#666666" stroke-width="4" stroke-linecap="round" stroke-linejoin="round"/>
      <path d="M82.399,150.555 C80.032,154.452 77.444,159.791 77.513,164.427 C77.624,171.843 82.887,174.259 85.779,167.597 C87.226,164.264 87.095,161.411 87.095,161.411" fill="#A6DBE6"/>
      <path d="M82.399,150.555 C80.032,154.452 77.444,159.791 77.513,164.427 C77.624,171.843 82.887,174.259 85.779,167.597 C87.226,164.264 87.095,161.411 87.095,161.411" fill-opacity="0" stroke="#666666" stroke-width="4" stroke-linecap="round" stroke-linejoin="round"/>
      <path d="M195.161,150.555 C197.528,154.452 200.116,159.791 200.047,164.427 C199.938,171.843 194.674,174.259 191.781,167.597 C190.334,164.264 190.466,161.411 190.466,161.411" fill="#A6DBE6"/>
      <path d="M195.161,150.555 C197.528,154.452 200.116,159.791 200.047,164.427 C199.938,171.843 194.674,174.259 191.781,167.597 C190.334,164.264 190.466,161.411 190.466,161.411" fill-opacity="0" stroke="#666666" stroke-width="4" stroke-linecap="round" stroke-linejoin="round"/>
    </g>
  </g>
</svg>
