<?xml version="1.0" encoding="UTF-8" standalone="no"?>
<!-- Created with Inkscape (http://www.inkscape.org/) -->

<svg
   xmlns:dc="http://purl.org/dc/elements/1.1/"
   xmlns:cc="http://creativecommons.org/ns#"
   xmlns:rdf="http://www.w3.org/1999/02/22-rdf-syntax-ns#"
   xmlns:svg="http://www.w3.org/2000/svg"
   xmlns="http://www.w3.org/2000/svg"
   xmlns:sodipodi="http://sodipodi.sourceforge.net/DTD/sodipodi-0.dtd"
   xmlns:inkscape="http://www.inkscape.org/namespaces/inkscape"
   width="350"
   height="138.784"
   viewBox="0 0 92.604165 36.719933"
   version="1.1"
   id="svg8"
   sodipodi:docname="qoute.svg"
   inkscape:version="0.92.2pre0 (973e216, 2017-07-25)">
  <defs
     id="defs2">
    <filter
       inkscape:collect="always"
       style="color-interpolation-filters:sRGB"
       id="filter1018"
       x="-0.22840755"
       width="1.4568151"
       y="-1.037623"
       height="3.0752461">
      <feGaussianBlur
         inkscape:collect="always"
         stdDeviation="1.6472953"
         id="feGaussianBlur1020" />
    </filter>
  </defs>
  <sodipodi:namedview
     id="base"
     pagecolor="#ffffff"
     bordercolor="#666666"
     borderopacity="1.0"
     inkscape:pageopacity="0.0"
     inkscape:pageshadow="2"
     inkscape:zoom="0.30380673"
     inkscape:cx="555.61881"
     inkscape:cy="-40.918395"
     inkscape:document-units="mm"
     inkscape:current-layer="layer1"
     showgrid="false"
     inkscape:window-width="1364"
     inkscape:window-height="707"
     inkscape:window-x="0"
     inkscape:window-y="0"
     inkscape:window-maximized="1"
     units="px" />
  <metadata
     id="metadata5">
    <rdf:RDF>
      <cc:Work
         rdf:about="">
        <dc:format>image/svg+xml</dc:format>
        <dc:type
           rdf:resource="http://purl.org/dc/dcmitype/StillImage" />
        <dc:title></dc:title>
      </cc:Work>
    </rdf:RDF>
  </metadata>
  <g
     inkscape:label="Layer 1"
     inkscape:groupmode="layer"
     id="layer1"
     transform="translate(0,-260.28006)">
    <g
       transform="matrix(-0.54254917,0,0,0.54254912,23.656422,257.88109)"
       id="g1074"
       style="fill:#1b7bc8;fill-opacity:1">
      <path
         sodipodi:nodetypes="sccssssss"
         style="fill:#1b7bc8;fill-opacity:1"
         inkscape:connector-curvature="0"
         d="M 37,66.102039 H -87.38461 l -6,6 V 12 c 0,-3.3 2.7,-6 6,-6 H 37 c 3.3,0 6,2.7 6,6 v 48.102039 c 0,3.3 -2.7,6 -6,6 z"
         id="path1070" />
      <path
         id="path1072"
         d="M 37,66.102039 H -87.38461 l -6,6 V 12 c 0,-3.3 2.7,-6 6,-6 H 37 c 3.3,0 6,2.7 6,6 v 48.102039 c 0,3.3 -2.7,6 -6,6 z"
         inkscape:connector-curvature="0"
         style="fill:#1b7bc8;fill-opacity:1"
         sodipodi:nodetypes="sccssssss" />
    </g>
    <g
       id="g848"
       transform="matrix(-0.54254917,0,0,0.54254912,23.329614,257.02476)">
      <path
         id="path828"
         d="M 37,66.102039 H -87.38461 l -6,6 V 12 c 0,-3.3 2.7,-6 6,-6 H 37 c 3.3,0 6,2.7 6,6 v 48.102039 c 0,3.3 -2.7,6 -6,6 z"
         inkscape:connector-curvature="0"
         style="fill:#2196f3"
         sodipodi:nodetypes="sccssssss" />
      <path
         sodipodi:nodetypes="sccssssss"
         style="fill:#1e8ae0;fill-opacity:1"
         inkscape:connector-curvature="0"
         d="M 37,66.102039 H -87.38461 l -6,6 V 12 c 0,-3.3 2.7,-6 6,-6 H 37 c 3.3,0 6,2.7 6,6 v 48.102039 c 0,3.3 -2.7,6 -6,6 z"
         id="path1068" />
    </g>
    <ellipse
       style="opacity:0.56300001;fill:#000000;fill-opacity:1;stroke:none;stroke-width:0.34395832;stroke-linecap:round;stroke-linejoin:round;stroke-miterlimit:4;stroke-dasharray:none;stroke-dashoffset:0;stroke-opacity:1;paint-order:markers fill stroke;filter:url(#filter1018)"
       id="path988"
       cx="147.56204"
       cy="219.10945"
       rx="8.6545057"
       ry="1.9050796"
       transform="matrix(1.0006797,0,0,1.0006796,-67.67506,57.358774)" />
    <text
       xml:space="preserve"
       style="font-style:normal;font-variant:normal;font-weight:600;font-stretch:normal;font-size:3.17715788px;line-height:1.25;font-family:'Open Sans';-inkscape-font-specification:'Open Sans Semi-Bold';letter-spacing:0px;word-spacing:0px;fill:#ffffff;fill-opacity:1;stroke:none;stroke-width:0.26476315"
       x="4.0046191"
       y="268.25323"
       id="text852"><tspan
         sodipodi:role="line"
         id="tspan850"
         x="4.0046191"
         y="268.25323"
         style="font-style:normal;font-variant:normal;font-weight:600;font-stretch:normal;font-size:3.17715788px;font-family:'Open Sans';-inkscape-font-specification:'Open Sans Semi-Bold';fill:#ffffff;stroke-width:0.26476315">Hanya dari makhluk kecil tak kasat mata</tspan><tspan
         sodipodi:role="line"
         x="4.0046191"
         y="272.22467"
         style="font-style:normal;font-variant:normal;font-weight:600;font-stretch:normal;font-size:3.17715788px;line-height:1.25;font-family:'Open Sans';-inkscape-font-specification:'Open Sans Semi-Bold';fill:#ffffff;stroke-width:0.26476315"
         id="tspan858">bisa membahayakan kehidupan??</tspan></text>
    <text
       id="text891"
       y="288.14017"
       x="3.133136"
       style="font-style:normal;font-variant:normal;font-weight:bold;font-stretch:normal;font-size:3.53017545px;line-height:1.25;font-family:'Open Sans';-inkscape-font-specification:'Open Sans Bold';letter-spacing:0px;word-spacing:0px;fill:#ffffff;fill-opacity:1;stroke:none;stroke-width:0.26476315"
       xml:space="preserve"><tspan
         style="font-style:normal;font-variant:normal;font-weight:bold;font-stretch:normal;font-size:3.53017545px;font-family:'Open Sans';-inkscape-font-specification:'Open Sans Bold';fill:#ffffff;stroke-width:0.26476315"
         y="288.14017"
         x="3.133136"
         sodipodi:role="line"
         id="tspan902">MARI KENALI DAN PERANGI MEREKA!!</tspan></text>
    <g
       id="g981"
       transform="matrix(0.36814615,0,0,0.36814612,72.072696,263.47221)">
      <g
         id="g959"
         style="fill:#616161">
        <rect
           id="rect955"
           height="17"
           width="4"
           transform="matrix(0.707,-0.707,0.707,0.707,-15.154,36.586)"
           y="28.1"
           x="34.599998" />
        <circle
           id="circle957"
           r="16"
           cy="20"
           cx="20" />
      </g>
      <rect
         id="rect961"
         height="12.3"
         width="4"
         transform="matrix(0.707,-0.707,0.707,0.707,-15.839,38.239)"
         y="32.099998"
         x="36.200001"
         style="fill:#37474f" />
      <circle
         id="circle963"
         r="13"
         cy="20"
         cx="20"
         style="fill:#64b5f6" />
      <path
         id="path965"
         d="M 26.9,14.2 C 25.2,12.2 22.7,11 20,11 c -2.7,0 -5.2,1.2 -6.9,3.2 -0.4,0.4 -0.3,1.1 0.1,1.4 0.4,0.4 1.1,0.3 1.4,-0.1 C 16,13.9 17.9,13 20,13 c 2.1,0 4,0.9 5.4,2.5 0.2,0.2 0.5,0.4 0.8,0.4 0.2,0 0.5,-0.1 0.6,-0.2 0.4,-0.4 0.4,-1.1 0.1,-1.5 z"
         inkscape:connector-curvature="0"
         style="fill:#bbdefb" />
    </g>
    <text
       id="text1053"
       y="277.83957"
       x="4.0046191"
       style="font-style:normal;font-variant:normal;font-weight:600;font-stretch:normal;font-size:3.17715788px;line-height:1.25;font-family:'Open Sans';-inkscape-font-specification:'Open Sans Semi-Bold';letter-spacing:0px;word-spacing:0px;fill:#ffffff;fill-opacity:1;stroke:none;stroke-width:0.26476315"
       xml:space="preserve"><tspan
         id="tspan1051"
         style="font-style:normal;font-variant:normal;font-weight:600;font-stretch:normal;font-size:3.17715788px;font-family:'Open Sans';-inkscape-font-specification:'Open Sans Semi-Bold';fill:#ffffff;stroke-width:0.26476315"
         y="277.83957"
         x="4.0046191"
         sodipodi:role="line">Lalu apa yang bisa kita lakukan?</tspan></text>
  </g>
</svg>
